{"title":"The Big Bang Theory S04E15 HDTV XviD-FQM {TheCloon}","uid":6167721,"size":183744813,"categoryP":"video","categoryS":"tv_shows","magnet":"?xt=urn:btih:e7365b8f05a4ddd37e7a061e3db6f1c0358453b3&amp;dn=The+Big+Bang+Theory+S04E15+HDTV+XviD-FQM+%7BTheCloon%7D&amp;tr=udp%3A%2F%2Ftracker.openbittorrent.com%3A80&amp;tr=udp%3A%2F%2Fopen.demonii.com%3A1337&amp;tr=udp%3A%2F%2Ftracker.coppersurfer.tk%3A6969&amp;tr=udp%3A%2F%2Fexodus.desync.com%3A6969","seeders":1,"leechers":0,"uploader":"TheCloon","files":4,"time":1297446301,"description":"###\n\nThe Big Bang Theory S04E15 HDTV XviD-FQM\n\n###\n\nA wealthy donor to the university makes Leonard consider how far he's willing to go for the sake of science.\n &lt;a href=&quot;\nhttp://www.tvrage.com/The_Big_Bang_Theory&quot; rel=&quot;nofollow&quot; target=&quot;_NEW&quot;&gt;\nhttp://www.tvrage.com/The_Big_Bang_Theory&lt;/a&gt;\n\n###\n\n[CODE]\n\nFormat                           : AVI\nFormat/Info                      : Audio Video Interleave\nFile size                        : 175 MiB\nDuration                         : 19mn 38s\nOverall bit rate                 : 1 247 Kbps\nWriting application              : transcode-1.0.4\n\nVideo\nID                               : 0\nFormat                           : MPEG-4 Visual\nFormat profile                   : Advanced Simple@L5\nFormat settings, BVOP            : 2\nFormat settings, QPel            : No\nFormat settings, GMC             : No warppoints\nFormat settings, Matrix          : Default (H.263)\nCodec ID                         : XVID\nCodec ID/Hint                    : XviD\nDuration                         : 19mn 38s\nBit rate                         : 1 073 Kbps\nWidth                            : 624 pixels\nHeight                           : 352 pixels\nDisplay aspect ratio             : 16:9\nFrame rate                       : 23.976 fps\nColor space                      : YUV\nChroma subsampling               : 4:2:0\nBit depth                        : 8 bits\nScan type                        : Progressive\nCompression mode                 : Lossy\nBits/(Pixel*Frame)               : 0.204\nStream size                      : 151 MiB (86%)\nWriting library                  : XviD 1.2.1 (UTC 2008-12-04)\n\nAudio\nID                               : 1\nFormat                           : MPEG Audio\nFormat version                   : Version 1\nFormat profile                   : Layer 3\nCodec ID                         : 55\nCodec ID/Hint                    : MP3\nDuration                         : 19mn 38s\nBit rate mode                    : Variable\nBit rate                         : 128 Kbps\nChannel(s)                       : 2 channels\nSampling rate                    : 48.0 KHz\nCompression mode                 : Lossy\nStream size                      : 22.8 MiB (13%)\nAlignment                        : Aligned on interleaves\nInterleave, duration             : 24 ms (0.58 video frame)\n[/CODE]\n\n### More torrents ###\n &lt;a href=&quot;\nhttp://thepiratebay.se/user/TheCloon&quot; rel=&quot;nofollow&quot; target=&quot;_NEW&quot;&gt;\nhttp://thepiratebay.se/user/TheCloon&lt;/a&gt;\n","torrent":{"xt":"urn:btih:e7365b8f05a4ddd37e7a061e3db6f1c0358453b3","amp;dn":"The+Big+Bang+Theory+S04E15+HDTV+XviD-FQM+%7BTheCloon%7D","amp;tr":["udp%3A%2F%2Ftracker.openbittorrent.com%3A80","udp%3A%2F%2Fopen.demonii.com%3A1337","udp%3A%2F%2Ftracker.coppersurfer.tk%3A6969","udp%3A%2F%2Fexodus.desync.com%3A6969"],"infoHash":"e7365b8f05a4ddd37e7a061e3db6f1c0358453b3","infoHashBuffer":{"type":"Buffer","data":[231,54,91,143,5,164,221,211,126,122,6,30,61,182,241,192,53,132,83,179]},"announce":[],"urlList":[]}}